<?xml version="1.0" encoding="utf-8"?>
<!-- Generator: Adobe Illustrator 22.1.0, SVG Export Plug-In . SVG Version: 6.00 Build 0)  -->
<svg version="1.1" id="Layer_1" xmlns="http://www.w3.org/2000/svg" xmlns:xlink="http://www.w3.org/1999/xlink" x="0px" y="0px"
	 viewBox="0 0 1931.4 1930.8" style="enable-background:new 0 0 1931.4 1930.8;" xml:space="preserve">
<style type="text/css">
	.st0{fill:#1B451F;}
	.st1{fill:#FCE728;}
	.st2{fill:#E82725;}
</style>
<g>
	
		<rect x="632.6" y="1103.4" transform="matrix(0.7071 -0.7071 0.7071 0.7071 -732.9135 1103.6279)" class="st0" width="666.3" height="666.3"/>
	
		<rect x="632.6" y="161.1" transform="matrix(0.7071 -0.7071 0.7071 0.7071 -66.6251 827.6254)" class="st0" width="666.3" height="666.3"/>
	
		<rect x="1103.7" y="632.3" transform="matrix(0.7071 -0.7071 0.7071 0.7071 -261.8218 1298.7942)" class="st1" width="666.3" height="666.3"/>
	
		<rect x="161.4" y="632.3" transform="matrix(0.7071 -0.7071 0.7071 0.7071 -537.8201 632.5031)" class="st1" width="666.3" height="666.3"/>
	<polygon class="st0" points="279,1051.1 279.9,1068.3 263.2,1077.5 247.1,1068.2 251.6,1051.1 180,1051.1 494.6,1365.7 
		809.2,1051.1 	"/>
	
		<rect x="211.5" y="936.9" transform="matrix(0.7071 -0.7071 0.7071 0.7071 -537.7439 632.4645)" class="st2" width="566.1" height="56.9"/>
	<g>
		<path class="st0" d="M352.4,1045.7l27.5-59.8l5.7-40.8l43.7,34.2l17.1,66.5l26.6-4.7L455.9,968l-36.1-38
			c-9.5-12.3-16.1-21.8-12.3-42.7c2.8-14.2,12.3-22.8,19-24.7l31.3,15.2H511v-23.7h-51.3L415,820.6l-71.2-14.2l-44.6,41.8l16.1,17.1
			l35.1-33.2l19.9,5.7c-18,11.4-28.5,23.7-28.5,44.6c0,13.3,4.7,20.9,10.4,34.2v63.6l-27.5,60.8L352.4,1045.7z M435.9,818.7
			c17.1,0,31.3-13.3,31.3-30.4c0-17.1-14.2-31.3-31.3-31.3c-17.1,0-31.3,14.2-31.3,30.4C404.6,804.5,418.8,818.7,435.9,818.7"/>
	</g>
	<polygon class="st0" points="545.1,851.3 522.5,851.3 515.5,869 531.6,878.4 548.4,869.1 	"/>
	<path class="st0" d="M526.5,952.6l-10,22.2l27.8,13.3H571l22.2-7.8v-18.9L526.5,952.6z M529.8,930.4l10,14.4l24.4,2.2l15.5-12.2
		l-5.6-13.3l-33.3-3.3L529.8,930.4z M507.6,1018.1l-4.4,24.4h114.4l-12.2-30l-32.2-14.4h-35.5L507.6,1018.1z M540.9,891.5l3.3,16.7
		l16.7,2.2l8.9-14.4l-17.8-7.8L540.9,891.5z"/>
	<path class="st0" d="M709,944.9l15.5,5.6l11.1-10l-7.8-13.3l-18.9,3.3v14.4H709z M672.3,1042.6h75.5v-34.4L726.7,996l-25.5-1.1
		l-36.6,23.3L672.3,1042.6z M689,982.6l43.3,4.4v-20l-11.1-7.8l-10-3.3L693.4,967L689,982.6z"/>
	<g>
		<path class="st1" d="M1203.8,537h-18.4v-35.4h17v-24h-17v-36h18.4c16.3,0,24.4,15.9,24.4,47.7C1228.2,521.1,1220.1,537,1203.8,537
			 M1204.7,415.1h-31.6v62.5H1158v24h15.1v61.9h32c11.4,0,20.3-6.5,26.5-19.5s9.3-31.2,9.3-54.7c0-23.6-3.1-41.9-9.4-54.8
			S1216.3,415.1,1204.7,415.1 M1149.9,437.8v-22.7h-46.4v22.7h17v103h-17v22.7h46.4v-22.7h-17v-103H1149.9z M1047,503.1h24.8v25
			c-3.5,7.4-9.5,11-17.8,11c-10.3,0-18.1-4.6-23.2-13.7c-5.2-9.1-7.7-21.4-7.7-37c0-14.4,2.3-26.2,6.9-35.3
			c4.6-9.1,11.7-13.7,21.3-13.7c13.7,0,20.6,9,20.6,26.9h15.3c0-15.7-2.7-28.5-8-38.5s-14-14.9-26.2-14.9
			c-13.7,0-24.2,6.7-31.4,20.1c-7.2,13.4-10.8,31.9-10.8,55.3c0,24.3,3.8,43.2,11.4,56.8c7.6,13.6,18.3,20.4,32,20.4
			c6.1,0,11.6-1.5,16.6-4.6c5-3,10.2-8.2,15.6-15.6v-65.9H1047V503.1z M962.4,565.6c-22.2,0-33.3-22.3-33.3-67v-83.5h12.5v81
			c0,14.6,1.4,25.4,4.3,32.4c2.9,7.1,8.4,10.6,16.4,10.6c8.1,0,13.5-3.5,16.4-10.6s4.3-17.9,4.3-32.4v-81h12.5v83.5
			C995.7,543.3,984.6,565.6,962.4,565.6 M899.1,504.4h-42.8v59.1h-12.5V415.1h12.5v59.1h42.8v-59.1h12.5v148.4h-12.5V504.4z
			 M801.5,440.5v123H789v-123h-27.8v-25.4h68.1v25.4H801.5z M728.3,446.5l-11.4,57h22L728.3,446.5z M744.6,533.8h-33.5l-5.9,29.7
			h-15.5l30.1-148.4H737l28.6,148.4h-15.5L744.6,533.8z"/>
		<path class="st1" d="M1256.3,1400.2v105.6h-12.5v-148.4h17.4l36.5,108.3v-108.3h12.5v148.4h-18.7L1256.3,1400.2z M1189,1481.4
			c7.9,0,14-4.3,18.1-12.8c4.2-8.5,6.3-21,6.3-37.2c0-16.1-2.1-28.4-6.3-36.9c-4.2-8.5-10.2-12.7-18.1-12.7s-14,4.2-18.1,12.7
			c-4.2,8.5-6.3,20.8-6.3,36.9c0,16.3,2.1,28.7,6.3,37.2C1175,1477.1,1181.1,1481.4,1189,1481.4 M1189,1507.9
			c-11.6,0-20.6-6.7-27-20.2s-9.6-32.3-9.6-56.3s3.2-42.7,9.6-56.1s15.4-20,27-20s20.6,6.7,27.1,20.1s9.8,32.1,9.8,56
			c0,24-3.3,42.8-9.8,56.3C1209.6,1501.1,1200.6,1507.9,1189,1507.9 M1142.7,1380v-22.7h-46.4v22.7h17v103h-17v22.7h46.4V1483h-17
			v-103H1142.7z M1053.8,1382.8v123h-12.5v-123h-27.8v-25.4h68.1v25.4H1053.8z M944.1,1400.2v105.6h-12.5v-148.4H949l36.5,108.3
			v-108.3H998v148.4h-18.7L944.1,1400.2z M856,1357.4h57.9v24h-45.4v35.4h42.4v29.5h-42.4v35.6h45.4v24H856V1357.4z M812.1,1382.8
			v123h-12.5v-123h-27.8v-25.4h68.1v25.4H812.1z M729.5,1382.8v123H717v-123h-27.8v-25.4h68.1v25.4H729.5z M656.1,1388.7l-11.4,57
			h22L656.1,1388.7z M672.4,1476.1h-33.5l-5.9,29.7h-15.5l30.1-148.4h17.2l28.6,148.4h-15.5L672.4,1476.1z"/>
		<path class="st0" d="M1669.8,1076.8h-9.3c0-1.1,0.2-1.7,0.6-2.6c0.7-1.5,2-2.5,4.1-2.5s3.4,1.1,4.1,2.5
			C1669.6,1075.1,1669.8,1075.7,1669.8,1076.8 M1675.8,1081v-2.7c0-6.7-3.9-11.7-10.7-11.7c-6.3,0-10.7,4.5-10.7,12.5
			c0,9.9,5.5,12.5,11.3,12.5c4.4,0,6.8-1.4,9.3-3.9l-3.7-3.6c-1.6,1.6-2.9,2.3-5.5,2.3c-3.4,0-5.4-2.3-5.4-5.5L1675.8,1081
			L1675.8,1081z M1648.2,1091.4v-15.7c0-2.7-0.5-5-2.5-7c-1.4-1.4-3.3-2.2-5.8-2.2c-2.3,0-4.5,0.8-6.1,2.5v-2.3h-6v24.5h6.1v-14.8
			c0-3.3,2.2-4.5,4.1-4.5s4,1.1,4,4.5v14.8L1648.2,1091.4z M1615,1079.1c0,2.5-0.1,4.7-1.4,6c-0.7,0.7-1.6,1.1-2.9,1.1
			c-1.2,0-2.1-0.4-2.8-1.1c-1.3-1.3-1.4-3.4-1.4-6c0-2.5,0.1-4.7,1.4-5.9c0.7-0.7,1.6-1.1,2.8-1.1c1.2,0,2.2,0.4,2.9,1.1
			C1614.8,1074.4,1615,1076.5,1615,1079.1 M1621.1,1079.1c0-4.4-0.6-7.2-2.8-9.5c-1.5-1.6-4-3-7.6-3s-6.1,1.4-7.6,3
			c-2.2,2.3-2.8,5.1-2.8,9.5c0,4.5,0.6,7.2,2.8,9.5c1.5,1.6,3.9,3,7.6,3c3.6,0,6.1-1.4,7.6-3
			C1620.5,1086.3,1621.1,1083.5,1621.1,1079.1 M1596.5,1091.4v-5.2h-2.3c-1.6,0-2.2-0.8-2.2-2.2v-26.1h-6.1v26.5c0,3.5,2.1,7,7.1,7
			L1596.5,1091.4z M1572.5,1082.3c0,1.5-0.2,2.5-0.9,3.1c-1.1,1-2.2,1.2-3.9,1.2c-2.4,0-3.5-1.1-3.5-2.8c0-1.7,1.2-2.8,3.4-2.8h4.8
			L1572.5,1082.3z M1578.6,1091.4v-16.1c0-5.7-3.6-8.6-10.4-8.6c-4.1,0-6.4,0.8-8.8,3.4l3.9,3.8c1.3-1.5,2.4-2,4.7-2
			c3.2,0,4.6,1.2,4.6,3.9v1.2h-5.8c-5.7,0-8.4,3.2-8.4,7.1c0,2.2,0.7,4.1,2,5.5c1.5,1.5,3.5,2.2,6.3,2.2s4.4-0.7,6-2.3v2.1h5.9
			V1091.4z M1542.2,1083.6c0-4.1-2.4-6.7-7.3-7.2l-3.9-0.4c-2.2-0.2-2.5-1.2-2.5-2.1c0-1.2,1-2.3,3.5-2.3c2.1,0,4.3,0.4,5.7,1.6
			l3.8-3.8c-2.3-2.2-5.5-2.9-9.4-2.9c-5,0-9.4,2.7-9.4,7.8c0,4.5,2.7,6.4,7.1,6.9l3.9,0.4c1.9,0.2,2.6,1,2.6,2.3
			c0,1.8-2.2,2.5-4.3,2.5c-1.9,0-4.5-0.3-6.5-2.3l-4,4c3.1,3.1,6.6,3.5,10.4,3.5C1537.5,1091.6,1542.2,1089,1542.2,1083.6
			 M1518.8,1091.4l-9.4-14.6l8.7-9.9h-7.4l-8.1,10v-19h-6.1v33.5h6.1v-7.3l2.6-2.9l6,10.2L1518.8,1091.4L1518.8,1091.4z
			 M1490.8,1088.3l-4.1-4.1c-1.3,1.4-2.3,1.9-3.9,1.9c-1.5,0-2.6-0.5-3.5-1.6c-0.9-1.2-1.4-2.9-1.4-5.5s0.4-4.2,1.4-5.4
			c0.9-1.1,2-1.6,3.5-1.6c1.6,0,2.7,0.6,3.9,1.9l4.1-4.1c-2.2-2.3-4.7-3.3-8.1-3.3c-4.9,0-11,2.6-11,12.5s6.1,12.5,10.9,12.5
			C1486.1,1091.6,1488.7,1090.6,1490.8,1088.3 M1460.1,1079.1c0,2.5-0.1,4.7-1.4,6c-0.7,0.7-1.6,1.1-2.9,1.1c-1.2,0-2.1-0.4-2.8-1.1
			c-1.3-1.3-1.4-3.4-1.4-6c0-2.5,0.1-4.7,1.4-5.9c0.7-0.7,1.6-1.1,2.8-1.1c1.2,0,2.2,0.4,2.9,1.1
			C1460,1074.4,1460.1,1076.5,1460.1,1079.1 M1466.2,1079.1c0-4.4-0.6-7.2-2.8-9.5c-1.5-1.6-4-3-7.6-3s-6.1,1.4-7.6,3
			c-2.2,2.3-2.8,5.1-2.8,9.5c0,4.5,0.6,7.2,2.8,9.5c1.5,1.6,3.9,3,7.6,3c3.6,0,6.1-1.4,7.6-3
			C1465.7,1086.3,1466.2,1083.5,1466.2,1079.1 M1443.6,1068.9c-1.7-1.7-3.4-2.3-5.8-2.3c-2.6,0-5,1.2-6.2,2.6v-2.4h-6v24.5h6.1
			v-14.8c0-3.1,2.1-4.5,3.9-4.5c1.5,0,2.3,0.5,3.2,1.5L1443.6,1068.9z M1401.2,1076.8h-9.3c0-1.1,0.2-1.7,0.6-2.6
			c0.7-1.5,2-2.5,4.1-2.5s3.4,1.1,4.1,2.5C1401.1,1075.1,1401.2,1075.7,1401.2,1076.8 M1407.3,1081v-2.7c0-6.7-3.9-11.7-10.7-11.7
			c-6.3,0-10.7,4.5-10.7,12.5c0,9.9,5.5,12.5,11.3,12.5c4.4,0,6.8-1.4,9.3-3.9l-3.7-3.6c-1.6,1.6-2.9,2.3-5.5,2.3
			c-3.4,0-5.4-2.3-5.4-5.5L1407.3,1081L1407.3,1081z M1379.6,1091.4v-15.8c0-5.2-2.8-8.9-8.2-8.9c-2.2,0-4.2,0.8-5.9,2.5V1058h-6.1
			v33.5h6.1v-14.9c0-3.2,2-4.3,3.9-4.3s4,1.1,4,4.3v14.9L1379.6,1091.4L1379.6,1091.4z M1353,1091.4v-5.2h-2.2
			c-1.5,0-2.1-0.8-2.1-2.2v-11.8h4.3v-4.7h-4.3v-7.2h-6.1v7.2h-2.6v4.7h2.6v12.1c0,3.5,2.1,7,7.1,7L1353,1091.4z M1317.5,1076.8
			h-9.3c0-1.1,0.2-1.7,0.6-2.6c0.7-1.5,2-2.5,4.1-2.5s3.4,1.1,4.1,2.5C1317.4,1075.1,1317.5,1075.7,1317.5,1076.8 M1323.6,1081v-2.7
			c0-6.7-3.9-11.7-10.7-11.7c-6.3,0-10.7,4.5-10.7,12.5c0,9.9,5.5,12.5,11.3,12.5c4.4,0,6.8-1.4,9.3-3.9l-3.7-3.6
			c-1.6,1.6-2.9,2.3-5.5,2.3c-3.4,0-5.4-2.3-5.4-5.5L1323.6,1081z M1299.4,1066.9h-6.4l-4.9,15.1l-5-15.1h-6.4l9,24.5h4.8
			L1299.4,1066.9z M1266.2,1082.3c0,1.5-0.2,2.5-0.9,3.1c-1.1,1-2.2,1.2-3.9,1.2c-2.4,0-3.5-1.1-3.5-2.8c0-1.7,1.2-2.8,3.4-2.8h4.8
			L1266.2,1082.3L1266.2,1082.3z M1272.3,1091.4v-16.1c0-5.7-3.6-8.6-10.4-8.6c-4.1,0-6.4,0.8-8.8,3.4l3.9,3.8c1.3-1.5,2.4-2,4.7-2
			c3.2,0,4.6,1.2,4.6,3.9v1.2h-5.8c-5.7,0-8.4,3.2-8.4,7.1c0,2.2,0.7,4.1,2,5.5c1.5,1.5,3.5,2.2,6.2,2.2c2.8,0,4.4-0.7,6-2.3v2.1
			L1272.3,1091.4z M1241.2,1076.8h-9.3c0-1.1,0.2-1.7,0.6-2.6c0.7-1.5,2-2.5,4.1-2.5s3.4,1.1,4.1,2.5
			C1241,1075.1,1241.1,1075.7,1241.2,1076.8 M1247.2,1081v-2.7c0-6.7-3.9-11.7-10.7-11.7c-6.3,0-10.7,4.5-10.7,12.5
			c0,9.9,5.5,12.5,11.3,12.5c4.4,0,6.8-1.4,9.3-3.9l-3.7-3.6c-1.6,1.6-2.9,2.3-5.5,2.3c-3.4,0-5.4-2.3-5.4-5.5L1247.2,1081z
			 M1221.3,1091.4v-5.8h-15.2V1058h-6.5v33.5L1221.3,1091.4L1221.3,1091.4z"/>
		<path class="st0" d="M1635.1,1029.6c0-4.1-2.4-6.7-7.3-7.2l-3.9-0.4c-2.2-0.2-2.5-1.2-2.5-2.1c0-1.2,1-2.3,3.5-2.3
			c2.1,0,4.3,0.4,5.7,1.6l3.8-3.8c-2.4-2.2-5.5-2.9-9.4-2.9c-5,0-9.4,2.7-9.4,7.8c0,4.5,2.7,6.4,7.1,6.9l3.9,0.4
			c1.9,0.2,2.6,1,2.6,2.3c0,1.8-2.2,2.5-4.3,2.5c-1.9,0-4.5-0.3-6.5-2.3l-4,4c3.1,3.1,6.6,3.5,10.4,3.5
			C1630.5,1037.6,1635.1,1035,1635.1,1029.6 M1609.2,1037.4v-15.7c0-2.7-0.5-5-2.5-7c-1.4-1.4-3.3-2.2-5.8-2.2
			c-2.3,0-4.5,0.8-6.1,2.5v-2.3h-6v24.5h6.1v-14.8c0-3.3,2.2-4.5,4.1-4.5s4,1.1,4,4.5v14.8h6.2V1037.4z M1584.4,1014.9
			c-1.7-1.7-3.4-2.3-5.8-2.3c-2.6,0-5,1.2-6.2,2.6v-2.4h-6v24.5h6.1v-14.8c0-3.1,2.1-4.5,3.9-4.5c1.5,0,2.3,0.5,3.2,1.5
			L1584.4,1014.9z M1558.8,1003.7h-6.3v5h6.3V1003.7z M1558.7,1012.9h-6.1v24.5h6.1V1012.9z M1539,1028.3c0,1.5-0.2,2.5-0.9,3.1
			c-1.1,1-2.2,1.2-3.9,1.2c-2.4,0-3.5-1.1-3.5-2.8c0-1.7,1.2-2.8,3.4-2.8h4.8L1539,1028.3z M1545.1,1037.4v-16.1
			c0-5.7-3.6-8.6-10.4-8.6c-4.1,0-6.4,0.8-8.8,3.4l3.9,3.8c1.3-1.5,2.3-2,4.7-2c3.2,0,4.6,1.2,4.6,3.9v1.2h-5.8
			c-5.7,0-8.4,3.2-8.4,7.1c0,2.2,0.7,4.1,2,5.5c1.5,1.5,3.5,2.2,6.3,2.2s4.4-0.7,6-2.3v2.1h5.9V1037.4z M1521.1,1034.3l-4.1-4.1
			c-1.3,1.4-2.3,1.9-3.9,1.9c-1.5,0-2.6-0.5-3.5-1.6c-0.9-1.2-1.4-2.9-1.4-5.5s0.4-4.2,1.4-5.4c0.9-1.1,2-1.6,3.5-1.6
			c1.6,0,2.7,0.6,3.9,1.9l4.1-4.1c-2.2-2.3-4.7-3.3-8.1-3.3c-4.9,0-11,2.6-11,12.5c0,9.9,6.1,12.5,11,12.5
			C1516.4,1037.6,1518.9,1036.6,1521.1,1034.3 M1478.8,1022.8h-9.3c0-1.1,0.2-1.7,0.6-2.6c0.7-1.5,2-2.5,4.1-2.5s3.4,1.1,4.1,2.5
			C1478.6,1021.1,1478.8,1021.7,1478.8,1022.8 M1484.8,1027v-2.7c0-6.7-3.9-11.7-10.7-11.7c-6.3,0-10.7,4.5-10.7,12.5
			c0,9.9,5.5,12.5,11.3,12.5c4.4,0,6.8-1.4,9.3-3.9l-3.7-3.6c-1.6,1.6-2.9,2.3-5.5,2.3c-3.4,0-5.4-2.3-5.4-5.5L1484.8,1027z
			 M1460.1,1037.4l-9.4-14.6l8.7-9.9h-7.4l-8.1,10v-19h-6.1v33.5h6.1v-7.3l2.6-2.9l6,10.2L1460.1,1037.4z M1424.2,1028.3
			c0,1.5-0.2,2.5-0.9,3.1c-1.1,1-2.2,1.2-3.9,1.2c-2.4,0-3.5-1.1-3.5-2.8c0-1.7,1.2-2.8,3.4-2.8h4.8L1424.2,1028.3L1424.2,1028.3z
			 M1430.3,1037.4v-16.1c0-5.7-3.6-8.6-10.4-8.6c-4.1,0-6.4,0.8-8.8,3.4l3.9,3.8c1.3-1.5,2.3-2,4.7-2c3.2,0,4.6,1.2,4.6,3.9v1.2
			h-5.8c-5.7,0-8.4,3.2-8.4,7.1c0,2.2,0.7,4.1,2,5.5c1.5,1.5,3.5,2.2,6.3,2.2s4.4-0.7,6-2.3v2.1h5.9V1037.4z M1404.3,1037.4v-15.7
			c0-2.7-0.7-5-2.7-7c-1.4-1.4-3.6-2.2-6-2.2c-3.1,0-5.3,0.9-7.3,3.1c-1.6-2.1-3.8-3.1-6.5-3.1c-2.3,0-4.5,0.9-6.1,2.5v-2.3h-6v24.5
			h6.1v-14.8c0-3.3,2.2-4.5,4.1-4.5s4,1.1,4,4.5v14.8h6.1v-14.9c0-3.2,2.2-4.3,4.1-4.3s4,1.1,4,4.5v14.8L1404.3,1037.4z
			 M1351.4,1037.4v-5.2h-2.2c-1.5,0-2.1-0.8-2.1-2.2v-11.8h4.3v-4.7h-4.3v-7.2h-6.1v7.2h-2.6v4.7h2.6v12.1c0,3.5,2.1,7,7.1,7
			L1351.4,1037.4z M1332.7,1009.7v-5.8h-6.4v10.7L1332.7,1009.7z M1319.1,1037.4v-15.7c0-2.7-0.5-5-2.5-7c-1.4-1.4-3.3-2.2-5.8-2.2
			c-2.3,0-4.5,0.8-6.1,2.5v-2.3h-6v24.5h6.1v-14.8c0-3.3,2.2-4.5,4.1-4.5s4,1.1,4,4.5v14.8h6.2V1037.4z M1285.8,1025.1
			c0,2.5-0.1,4.7-1.4,6c-0.7,0.7-1.6,1.1-2.9,1.1c-1.2,0-2.1-0.4-2.8-1.1c-1.3-1.3-1.4-3.4-1.4-6c0-2.5,0.1-4.7,1.4-5.9
			c0.7-0.7,1.6-1.1,2.8-1.1c1.2,0,2.2,0.4,2.9,1.1C1285.7,1020.4,1285.8,1022.5,1285.8,1025.1 M1292,1025.1c0-4.4-0.6-7.2-2.8-9.5
			c-1.5-1.6-4-3-7.6-3s-6.1,1.4-7.6,3c-2.2,2.3-2.8,5.1-2.8,9.5c0,4.5,0.6,7.2,2.8,9.5c1.5,1.6,3.9,3,7.6,3c3.6,0,6.1-1.4,7.6-3
			C1291.4,1032.3,1292,1029.5,1292,1025.1 M1258.6,1020.5c0,5.1-0.2,7.5-1.4,9c-1.1,1.4-2.6,2.1-4.9,2.1h-4.9v-21.8h4.9
			c2.3,0,3.8,0.7,4.9,2.1C1258.4,1013.3,1258.6,1015.4,1258.6,1020.5 M1265.1,1020.5c0-5,0.4-9.6-3.4-13.4c-2.2-2.2-5.4-3.2-8.8-3.2
			h-12.1v33.5h12.1c3.5,0,6.6-1,8.8-3.2C1265.5,1030.4,1265.1,1025.5,1265.1,1020.5"/>
		<path class="st0" d="M1655.3,895.7h-6.3v5h6.3V895.7z M1655.2,904.9h-6.1v24.5h6.1V904.9z M1636,917.4c0,2.4-0.1,4.5-1.3,5.7
			c-0.7,0.7-1.6,1-2.7,1s-2-0.4-2.7-1c-1.2-1.2-1.3-3.3-1.3-5.7s0.1-4.4,1.3-5.6c0.7-0.7,1.6-1,2.7-1s2.1,0.4,2.7,1
			C1635.9,913,1636,915,1636,917.4 M1642.1,917.4c0-4.6-0.6-6.7-2.9-11.2l-1.9-3.6h2.2v-4.3h-4.3l-1.5-2.8h-6.5l1.5,2.8h-3.2v4.3
			h5.4l1.6,2.9c-1.2-0.1-2.4,0-3.6,0.3c-1.7,0.5-3.2,1.3-4.2,2.3c-2.2,2.3-2.7,5-2.7,9.3s0.6,7.1,2.7,9.3c1.5,1.6,3.9,2.9,7.4,2.9
			s5.9-1.4,7.4-2.9C1641.5,924.5,1642.1,921.7,1642.1,917.4 M1615,895.7h-6.3v5h6.3V895.7z M1614.9,904.9h-6.1v24.5h6.1V904.9z
			 M1604.4,906.9c-1.7-1.7-3.4-2.3-5.8-2.3c-2.6,0-5,1.2-6.2,2.6v-2.4h-6v24.5h6.1v-14.8c0-3.1,2.1-4.5,3.9-4.5
			c1.5,0,2.3,0.5,3.2,1.5L1604.4,906.9z M1580.8,910.2v-4.7h-4.5v-2.7c0-1.4,0.7-2.2,2.1-2.2h2.4v-5.2h-3.5c-5,0-7.1,3.5-7.1,7v3.1
			h-2.5v4.7h2.5v19.1h6.1v-19.1L1580.8,910.2L1580.8,910.2z M1553.2,893h-6.4l-3,8h4.1L1553.2,893z M1549.9,904.9h-6.1v24.5h6.1
			V904.9z M1518.3,920.3c0,1.5-0.2,2.5-0.9,3.1c-1.1,1-2.2,1.2-3.9,1.2c-2.4,0-3.5-1.1-3.5-2.8s1.2-2.8,3.4-2.8h4.8L1518.3,920.3
			L1518.3,920.3z M1524.4,929.4v-16.1c0-5.7-3.6-8.6-10.4-8.6c-4.1,0-6.4,0.8-8.8,3.4l3.9,3.8c1.3-1.5,2.3-2,4.7-2
			c3.2,0,4.6,1.2,4.6,3.9v1.2h-5.8c-5.7,0-8.4,3.2-8.4,7.1c0,2.2,0.7,4.1,2,5.5c1.5,1.5,3.5,2.2,6.3,2.2s4.4-0.7,6-2.3v2.1h5.9
			V929.4z M1498.4,929.4v-15.7c0-2.7-0.5-5-2.5-7c-1.4-1.4-3.3-2.2-5.8-2.2c-2.3,0-4.5,0.8-6.1,2.5v-2.3h-6v24.5h6.1v-14.8
			c0-3.3,2.2-4.5,4.1-4.5s4,1.1,4,4.5v14.8L1498.4,929.4z M1464.4,920.3c0,1.5-0.2,2.5-0.9,3.1c-1.1,1-2.2,1.2-3.9,1.2
			c-2.4,0-3.5-1.1-3.5-2.8s1.2-2.8,3.4-2.8h4.8L1464.4,920.3z M1470.5,929.4v-16.1c0-5.7-3.6-8.6-10.4-8.6c-4.1,0-6.4,0.8-8.8,3.4
			l3.9,3.8c1.3-1.5,2.3-2,4.7-2c3.2,0,4.6,1.2,4.6,3.9v1.2h-5.8c-5.7,0-8.4,3.2-8.4,7.1c0,2.2,0.7,4.1,2,5.5
			c1.5,1.5,3.5,2.2,6.3,2.2s4.4-0.7,6-2.3v2.1h5.9V929.4z M1444.4,929.4v-15.7c0-2.7-0.5-5-2.5-7c-1.4-1.4-3.3-2.2-5.8-2.2
			c-2.3,0-4.5,0.8-6.1,2.5v-2.3h-6v24.5h6.1v-14.8c0-3.3,2.2-4.5,4.1-4.5s4,1.1,4,4.5v14.8h6.2V929.4z M1416.4,895.7h-6.3v5h6.3
			V895.7z M1416.3,904.9h-6.1v24.5h6.1V904.9z M1397.6,914.8h-9.3c0-1.1,0.2-1.7,0.6-2.6c0.7-1.5,2-2.5,4.1-2.5s3.4,1.1,4.1,2.5
			C1397.4,913.1,1397.6,913.7,1397.6,914.8 M1403.6,919v-2.7c0-6.7-3.9-11.7-10.7-11.7c-6.3,0-10.7,4.5-10.7,12.5
			c0,9.9,5.5,12.5,11.3,12.5c4.4,0,6.8-1.4,9.3-3.9l-3.7-3.6c-1.5,1.6-2.9,2.3-5.5,2.3c-3.4,0-5.4-2.3-5.4-5.5L1403.6,919z
			 M1377.2,929.4v-5.2h-2.2c-1.5,0-2.1-0.8-2.1-2.2v-11.8h4.3v-4.7h-4.3v-7.2h-6.1v7.2h-2.6v4.7h2.6v12.1c0,3.5,2.1,7,7.1,7h3.3
			V929.4z M1360.6,921.6c0-4.1-2.4-6.7-7.3-7.2l-3.9-0.4c-2.2-0.2-2.5-1.2-2.5-2.1c0-1.2,1-2.3,3.5-2.3c2.1,0,4.3,0.4,5.7,1.6
			l3.8-3.8c-2.3-2.2-5.5-2.9-9.4-2.9c-5,0-9.4,2.7-9.4,7.8c0,4.5,2.7,6.4,7.1,6.9l3.9,0.4c1.9,0.2,2.6,1,2.6,2.3
			c0,1.8-2.2,2.5-4.3,2.5c-1.9,0-4.5-0.3-6.5-2.3l-4,4c3.1,3.1,6.6,3.5,10.4,3.5C1356,929.6,1360.6,927,1360.6,921.6 M1317.2,917.4
			c0,2.4-0.1,4.5-1.3,5.7c-0.7,0.7-1.6,1-2.7,1s-2-0.4-2.7-1c-1.2-1.2-1.3-3.3-1.3-5.7s0.1-4.4,1.3-5.6c0.7-0.7,1.6-1,2.7-1
			s2.1,0.4,2.7,1C1317.1,913,1317.2,915,1317.2,917.4 M1323.3,917.4c0-4.6-0.6-6.7-2.9-11.2l-1.9-3.6h2.2v-4.3h-4.3l-1.5-2.8h-6.5
			l1.5,2.8h-3.2v4.3h5.4l1.6,2.9c-1.2-0.1-2.4,0-3.6,0.3c-1.7,0.5-3.2,1.3-4.2,2.3c-2.2,2.3-2.7,5-2.7,9.3s0.6,7,2.7,9.3
			c1.5,1.6,3.9,2.9,7.4,2.9s5.9-1.4,7.4-2.9C1322.7,924.5,1323.3,921.7,1323.3,917.4 M1296.2,895.7h-6.3v5h6.3V895.7z M1296.1,904.9
			h-6.1v24.5h6.1V904.9z M1283.5,929.4v-5.2h-2.2c-1.5,0-2.1-0.8-2.1-2.2v-11.7h4.3v-4.7h-4.3v-7.2h-6.1v7.2h-2.6v4.7h2.6v12.1
			c0,3.5,2.1,7,7.1,7L1283.5,929.4z M1262.2,893h-6.4l-3,8h4.1L1262.2,893z M1258.9,920.3c0,1.5-0.2,2.5-0.9,3.1
			c-1.1,1-2.2,1.2-3.9,1.2c-2.4,0-3.5-1.1-3.5-2.8s1.2-2.8,3.4-2.8h4.8L1258.9,920.3z M1265,929.4v-16.1c0-5.7-3.6-8.6-10.4-8.6
			c-4.1,0-6.4,0.8-8.8,3.4l3.9,3.8c1.3-1.5,2.3-2,4.7-2c3.2,0,4.6,1.2,4.6,3.9v1.2h-5.8c-5.7,0-8.4,3.2-8.4,7.1c0,2.2,0.7,4.1,2,5.5
			c1.5,1.5,3.5,2.2,6.3,2.2s4.4-0.7,6-2.3v2.1L1265,929.4z M1240.7,929.4v-5.8h-15.2V896h-6.5v33.5h21.7V929.4z"/>
		<path class="st0" d="M1618.2,875.4v-24.5h-6.1v14.8c0,3.3-2.2,4.5-4.1,4.5s-4-1.1-4-4.5v-14.8h-6.1v15.7c0,2.7,0.5,5,2.5,7
			c1.4,1.4,3.3,2.2,5.8,2.2c2.3,0,4.5-0.8,6.1-2.5v2.3L1618.2,875.4z M1585,863.4c0,2.4-0.1,4.5-1.3,5.7c-0.7,0.7-1.6,1-2.7,1
			s-2-0.4-2.7-1c-1.2-1.2-1.3-3.3-1.3-5.7s0.1-4.4,1.3-5.6c0.7-0.7,1.6-1,2.7-1s2.1,0.4,2.7,1C1584.9,859,1585,861,1585,863.4
			 M1591.1,863.4c0-4.6-0.6-6.7-2.9-11.2l-1.9-3.6h2.2v-4.3h-4.3l-1.5-2.8h-6.5l1.5,2.8h-3.2v4.3h5.4l1.6,2.9
			c-1.2-0.1-2.4,0-3.6,0.3c-1.7,0.5-3.2,1.3-4.2,2.3c-2.2,2.3-2.7,5-2.7,9.3s0.6,7,2.7,9.3c1.5,1.6,3.9,2.9,7.4,2.9s5.9-1.4,7.4-2.9
			C1590.5,870.5,1591.1,867.7,1591.1,863.4 M1567.3,852.9c-1.7-1.7-3.4-2.3-5.8-2.3c-2.6,0-5,1.2-6.2,2.6v-2.4h-6v24.5h6.1v-14.8
			c0-3.1,2.1-4.5,3.9-4.5c1.5,0,2.3,0.5,3.2,1.5L1567.3,852.9z M1529.7,841h-5.2v5.9h5.2V841z M1540.1,841h-5.2v5.9h5.2V841z
			 M1536.5,863.1c0,2.5-0.1,4.7-1.4,6c-0.7,0.7-1.6,1.1-2.9,1.1c-1.2,0-2.1-0.4-2.8-1.1c-1.3-1.3-1.4-3.4-1.4-6
			c0-2.5,0.1-4.7,1.4-5.9c0.7-0.7,1.6-1.1,2.8-1.1c1.2,0,2.2,0.4,2.9,1.1C1536.3,858.4,1536.5,860.5,1536.5,863.1 M1542.6,863.1
			c0-4.4-0.6-7.2-2.8-9.5c-1.5-1.6-4-3-7.6-3s-6.1,1.4-7.6,3c-2.2,2.3-2.8,5.1-2.8,9.5c0,4.5,0.6,7.2,2.8,9.5c1.5,1.6,3.9,3,7.6,3
			c3.6,0,6.1-1.4,7.6-3C1542,870.3,1542.6,867.5,1542.6,863.1 M1518.8,850.9h-6.4l-4.9,15.1l-5-15.1h-6.4l9,24.5h4.8L1518.8,850.9z
			 M1473.8,866.3c0,1.5-0.2,2.5-0.9,3.1c-1.1,1-2.2,1.2-3.9,1.2c-2.4,0-3.5-1.1-3.5-2.8s1.2-2.8,3.4-2.8h4.8L1473.8,866.3z
			 M1479.9,875.4v-16.1c0-5.7-3.6-8.6-10.4-8.6c-4.1,0-6.4,0.8-8.8,3.4l3.9,3.8c1.3-1.5,2.3-2,4.7-2c3.2,0,4.6,1.2,4.6,3.9v1.2h-5.8
			c-5.7,0-8.4,3.2-8.4,7.1c0,2.2,0.7,4.1,2,5.5c1.5,1.5,3.5,2.2,6.3,2.2s4.4-0.7,6-2.3v2.1h5.9V875.4z M1448.2,863.4
			c0,2.4-0.1,4.5-1.3,5.7c-0.7,0.7-1.6,1-2.7,1s-2-0.4-2.7-1c-1.2-1.2-1.3-3.3-1.3-5.7s0.1-4.4,1.3-5.6c0.7-0.7,1.6-1,2.7-1
			s2.1,0.4,2.7,1C1448.1,859,1448.2,861,1448.2,863.4 M1454.3,863.4c0-4.6-0.6-6.7-2.9-11.2l-1.9-3.6h2.2v-4.3h-4.3l-1.5-2.8h-6.5
			l1.5,2.8h-3.2v4.3h5.4l1.6,2.9c-1.2-0.1-2.4,0-3.6,0.3c-1.7,0.5-3.2,1.3-4.2,2.3c-2.2,2.3-2.7,5-2.7,9.3s0.6,7,2.7,9.3
			c1.5,1.6,3.9,2.9,7.4,2.9s5.9-1.4,7.4-2.9C1453.8,870.5,1454.3,867.7,1454.3,863.4 M1421.3,866.3c0,1.5-0.2,2.5-0.9,3.1
			c-1.1,1-2.2,1.2-3.9,1.2c-2.4,0-3.5-1.1-3.5-2.8s1.2-2.8,3.4-2.8h4.8L1421.3,866.3z M1427.4,875.4v-16.1c0-5.7-3.6-8.6-10.4-8.6
			c-4.1,0-6.4,0.8-8.8,3.4l3.9,3.8c1.3-1.5,2.3-2,4.7-2c3.2,0,4.6,1.2,4.6,3.9v1.2h-5.8c-5.7,0-8.4,3.2-8.4,7.1c0,2.2,0.7,4.1,2,5.5
			c1.5,1.5,3.5,2.2,6.3,2.2s4.4-0.7,6-2.3v2.1L1427.4,875.4z M1403.1,875.4v-5.2h-2.4c-1.6,0-2.2-0.8-2.2-2.2v-26.1h-6.1v26.5
			c0,3.5,2.1,7,7.1,7H1403.1z M1385.2,875.4v-15.8c0-5.2-2.8-8.9-8.2-8.9c-2.2,0-4.2,0.8-5.9,2.5V842h-6.1v33.5h6.1v-14.9
			c0-3.2,2-4.3,3.9-4.3s4,1.1,4,4.3v14.9L1385.2,875.4L1385.2,875.4z M1345.4,841.7h-6.3v5h6.3V841.7z M1345.4,850.9h-6.1v24.5h6.1
			V850.9z M1334.3,875.4l-9.4-14.6l8.7-9.9h-7.4l-8.1,10v-19h-6.1v33.5h6.1v-7.3l2.6-2.9l6,10.2H1334.3z M1307.1,875.4l-9.4-14.6
			l8.7-9.9h-7.4l-8.1,10v-19h-6.1v33.5h6.1v-7.3l2.6-2.9l6,10.2H1307.1z M1278,875.4v-5.8h-15.5v-8.1h13.2v-5.8h-13.2v-7.8h15.5
			v-5.8h-22v33.5L1278,875.4z"/>
	</g>
</g>
</svg>
