<?xml version="1.0" encoding="utf-8"?>
<!-- Generator: Adobe Illustrator 22.1.0, SVG Export Plug-In . SVG Version: 6.00 Build 0)  -->
<svg version="1.1" id="Layer_1" xmlns="http://www.w3.org/2000/svg" xmlns:xlink="http://www.w3.org/1999/xlink" x="0px" y="0px"
	 viewBox="0 0 203 306" style="enable-background:new 0 0 203 306;" xml:space="preserve">
<path d="M52.8,72.1c18,0,33-14,33-32s-15-33-33-33s-33,15-33,32C19.8,57.1,34.8,72.1,52.8,72.1z M48.8,298.1h29l28-51l-6-38l47,23
	l9,66l26-10l-10-70l-50-37c-28-20-36-28-36-47v-6l40,21l62-9l-4-25l-56,7l-25-16c6-3,18-4,29-4h21l-9-79l-26,1l6,52h-34
	c-43,0-67,17-73,46c-7,36,18,63,47,76l14,47L48.8,298.1z"/>
</svg>
