<?xml version="1.0" encoding="utf-8"?>
<!-- Generator: Adobe Illustrator 22.1.0, SVG Export Plug-In . SVG Version: 6.00 Build 0)  -->
<svg version="1.1" id="Layer_1" xmlns="http://www.w3.org/2000/svg" xmlns:xlink="http://www.w3.org/1999/xlink" x="0px" y="0px"
	 viewBox="0 0 225 284" style="enable-background:new 0 0 225 284;" xml:space="preserve">
<path d="M170,70.5c18,0,33-14,33-32s-15-33-33-33s-33,15-33,32C137,55.5,152,70.5,170,70.5z M28,275.5l34-75v75h30l1-111
	c-13-24-21-50-14-66c6-13,19-20,37-12l-1,64l44,65l21-16l-37-54l-1-33l54,75l21-16l-81-110c-12-16-24-27-49-31c-28-4-55,7-68,32
	c-12,23-13,60,18,111l-32,84L28,275.5z"/>
</svg>
