<?xml version="1.0" encoding="utf-8"?>
<!-- Generator: Adobe Illustrator 22.1.0, SVG Export Plug-In . SVG Version: 6.00 Build 0)  -->
<svg version="1.1" id="Layer_1" xmlns="http://www.w3.org/2000/svg" xmlns:xlink="http://www.w3.org/1999/xlink" x="0px" y="0px"
	 viewBox="0 0 280 307" style="enable-background:new 0 0 280 307;" xml:space="preserve">
<path d="M178,81.5c18,0,33-14,33-32s-15-33-33-33s-33,15-33,32C145,66.5,160,81.5,178,81.5z M200,301.5h29l7-85l-57-24
	c21-8,40-22,40-49c0-14-5-23-15-34l67-25l-24-74l-24,6l17,55l-62,20l-86-31l-54,67l20,13l42-51l38,14c8,8,12,16,12,27
	c0,26-23,40-41,52l-30,58l-65-21l-9,28l82,25l50-60l69,21L200,301.5z"/>
</svg>
